<?xml version="1.0" encoding="UTF-8"?>
<svg id="Layer_1" xmlns="http://www.w3.org/2000/svg" version="1.1" viewBox="0 0 391.9 577.9">
  <!-- Generator: Adobe Illustrator 29.3.1, SVG Export Plug-In . SVG Version: 2.1.0 Build 151)  -->
  <defs>
    <style>
      .st0 {
        fill: #f9c209;
      }
    </style>
  </defs>
  <path class="st0" d="M279.9.2c-18.2-1.6-35.9,4.8-50,16.2-10.1,8.2-17.4,19.1-25,29.6-8.8,12-17.9,23.9-26,36.4s-4.7,7.8-6.4,12c-16,38,8.5,76.2,37.1,100.3,32.9,27.7,73.7,44.4,101.9,77.9,23.5,27.9,38.5,62.8,43.4,99,5.5,40.8-2,82.7-23.5,118l.6-.9c-.7,1.2-1.5,2.4-2.3,3.6-5.3,8.1-3.3,4.8,12.2-16.5,14.1-19,18.3-24.8,12.7-17.6-.4.6-.9,1.1-1.3,1.7-1,1.3-2.1,2.6-3.2,3.8l.7-.8c-44.6,52.2-118.4,79.6-185.6,60.6-65.6-18.6-118.8-77.6-128.4-145.4s4.4-78.2,24.7-111.3l-.6.9c.8-1.2,1.5-2.4,2.3-3.6.5-.8,1-1.6,1.6-2.4-4.6,5.9-9,12-13.2,18.2-10.5,14.5-17.8,23.9-11.9,16.6s2.1-2.6,3.2-3.9l-.7.8c23.1-27.1,53.7-47.4,88.4-55.7,1-.3,5.4-7.1,5.3-7,4.2-5.7,8.4-11.4,12.5-17.1,4.1-5.7,8.3-11.5,12.4-17.2s3.8-7,5-7.2c-37.8,9.1-70.4,32.2-94,62.6-14.8,19.1-29.4,38.7-42.6,59-5.1,7.9-9.7,16.1-13.6,24.6-8.1,17.6-13.3,36.6-14.9,55.9-6.7,77.3,46.8,151.6,118.6,177.3,36.4,13,76.2,12.2,112.6-.3,37.2-12.7,68.9-36.6,92.5-67.8s29.2-38.2,41.8-58.5c4.9-8,9.3-16.3,12.8-25,7.3-17.8,11.5-36.9,12.7-56.1,2.4-38.8-7.3-78.3-27.1-111.7-9.7-16.4-21.9-31.4-36.3-43.9-18.3-16-39.5-28-59.6-41.5-33.3-22.3-71.9-57.1-65.3-101.7,1.4-9.3,4.8-18,9.6-26l-.6.9.7-1.2c5.6-8.4.7-1.8-14.6,20-15.8,21.1-20.8,28-14.9,20.6.4-.6.9-1.1,1.3-1.6l-.7.8c15-17.5,37.1-28.6,60.5-26.6s5.9-7.7,5.3-7c4.2-5.7,8.4-11.4,12.5-17.1s8.3-11.5,12.4-17.2,4.4-7.3,5-7.2h0Z"/>
</svg>